<?xml version="1.0" encoding="UTF-8" standalone="no"?>
<svg
   xmlns:svg="http://www.w3.org/2000/svg"
   xmlns="http://www.w3.org/2000/svg"
   height="64"
   width="64"
   version="1.1"
   >
  <path
     d="M 8,2 a 6,6 0 0 0 -6,6 l 0,48 a 6,6 0 0 0 6,6 l 48,0 a 6,6 0 0 0 6,-6 l 0,-48 a 6,6 0 0 0 -6,-6 z"
     id="border-grey"
     style="stroke:#98959b;stroke-width:4;fill:none;stroke-opacity:1"
     />
  <g
     style="fill-opacity:1;stroke:none"
     id="g-edython">
  <path
     d="M 8,8 l 0,48 48,0 0,-48 z"
     style="fill:#f9951b"
     id="p-e-orange" />
  <path
     d="M 16,16 l 8,0 m 4,0 l 20,0 M 16,24 l 20,0 m 4,0 l 8,0 M 16,32 l 32,0 M 16,40 l 8,0 m 4,0 l 20,0 M 16,48 l 20,0 m 4,0 l 8,0"
     id="eye-grey"
     style="stroke:#98959b;stroke-width:3;"
     />
  </g>
</svg>
