<?xml version="1.0" encoding="UTF-8" standalone="no"?>
<svg
   xmlns:svg="http://www.w3.org/2000/svg"
   xmlns="http://www.w3.org/2000/svg"
   height="64"
   width="64"
   version="1.1"
   >
  <path
     d="M 8,2 a 6,6 0 0 0 -6,6 l 0,48 a 6,6 0 0 0 6,6 l 48,0 a 6,6 0 0 0 6,-6 l 0,-48 a 6,6 0 0 0 -6,-6 z"
     id="border-orange"
     style="stroke:#f9951b;stroke-width:4;fill:none;stroke-opacity:1"
     />
  <g
     style="fill-opacity:1;stroke:none"
     id="g-edython"
     transform="translate(16,16)scale(2,2)">
    <path
       d="M 14,10 A 2,2 0 0 0 12,8 L 4,8 A 2,2 1 0 1 2,6 L 7,6 A 3,3 0 0 0 7,0 L 4,0 A 4,4 0 0 0 0,4 l 0,2 a 4,4 0 0 0 4,4 z"
       style="fill:#f9951b"
       id="p-e-orange"
       inkscape:connector-curvature="0" />
    <path
       id="p-e-gris"
       style="fill:#98959b"
       d="m 2,6 a 2,2 0 0 0 2,2 l 8,0 a 2,2 0 0 1 2,2 l -5,0 a 3,3 0 0 0 0,6 l 3,0 a 4,4 0 0 0 4,-4 l 0,-2 A 4,4 0 0 0 12,6 Z"
       inkscape:connector-curvature="0" />
    <path
       style="fill:#f9951b"
       id="eye-orange"
       d="m 9,12 a 1,1 0 0 1 0,2 1,1 0 1 1 0,-2 z"
       inkscape:connector-curvature="0" />
    <path
       d="M 7,2 A 1,1 0 0 1 7,4 1,1 0 1 1 7,2 Z"
       id="eye-grey"
       style="fill:#98959b"
       inkscape:connector-curvature="0" />
  </g>
</svg>
